<svg width="1200" height="1280" viewBox="0 0 1200 1280" fill="none" xmlns="http://www.w3.org/2000/svg">
  <rect width="1200" height="1280" rx="80" fill="#FFF7EF"/>
  <ellipse cx="781" cy="315" rx="225" ry="200" fill="#FFC6AF"/>
  <ellipse cx="958" cy="771" rx="110" ry="96" fill="#D6EEFF"/>
  <ellipse cx="201" cy="931" rx="130" ry="110" fill="#FFE3B1"/>
  <path d="M691.821 336.786C656.85 271.207 584.765 243.974 521.988 273.264C459.211 302.554 424.942 378.278 442.826 449.682L450.334 479.657C471.868 565.618 445.43 656.57 380.838 716.907C340.39 754.695 315.048 808.493 315.048 868.301V1021.84H841.509V579.267C841.509 510.484 822.549 443.031 786.676 384.345L691.821 336.786Z" fill="#C16A2B"/>
  <path d="M662.984 334.188C644.156 291.045 595.961 272.157 555.327 291.872C514.693 311.587 494.718 362.644 508.687 407.719L526.759 466.046C550.221 541.761 530.725 624.179 475.823 681.144L448.654 709.341C406.168 753.426 382.383 812.284 382.383 873.505V1021.84H761.775V572.484C761.775 505.99 743.531 440.783 709.007 384.123L662.984 334.188Z" fill="#E88927"/>
  <path d="M705.538 241.034C751.776 289.991 765.914 360.499 739.723 418.092C694.342 517.907 576.472 565.579 476.451 524.564C401.261 493.741 349.982 424.631 338.319 345.554C372.748 274.145 438.382 222.118 516.761 210.536C590.84 199.591 662.23 228.178 705.538 241.034Z" fill="#F6A21A"/>
  <path d="M713.862 242.574C719.873 302.649 755.925 352.691 808.603 373.86C842.269 387.389 880.543 386.582 913.826 372.152C902.148 308.106 861.418 251.609 801.737 220.491C773.816 205.919 743.366 198.38 712.643 198.38C712.824 213.088 713.233 227.801 713.862 242.574Z" fill="#0F2C44"/>
  <path d="M879.719 425.731C864.104 460.461 824.066 476.144 790.384 460.303C756.702 444.462 741.988 403.106 756.915 368.072L765.711 347.425C780.639 312.39 820.677 296.708 854.359 312.549C888.041 328.39 902.755 369.746 887.828 404.78L879.719 425.731Z" fill="#0F2C44"/>
  <path d="M584.684 291.214C610.517 295.757 633.065 312.441 645.935 336.36C671.542 383.937 655.087 444.922 609.183 472.575C563.278 500.228 505.335 484.081 479.728 436.503C469.622 417.73 465.793 397.036 467.303 376.86C496.648 331.735 538.897 300.532 584.684 291.214Z" fill="#FFB21F"/>
  <path d="M547.339 620.356C673.962 620.356 776.61 724.684 776.61 853.372V1021.84H318.069V846.994C318.069 721.83 416.876 620.356 538.779 620.356H547.339Z" fill="#F0A128"/>
  <path d="M668.028 593.772C757.065 605.421 825.807 682.005 825.807 774.614V1021.84H527.673V756.764C527.673 657.749 607.419 580.806 705.79 585.424L668.028 593.772Z" fill="#FFF6EE"/>
  <path d="M742.799 620.774C691.757 589.758 627.295 591.588 578.082 625.447L495.157 682.503C448.97 714.291 423.413 768.053 428.56 824.112L447.193 1027.42H866.662L878.54 794.366C882.098 724.566 844.854 664.93 780.964 628.47L742.799 620.774Z" fill="#122B45"/>
  <path d="M619.091 625.459C672.356 594.239 739.336 595.658 791.081 629.113L850.569 667.589C896.141 697.052 923.5 747.857 923.5 802.537V1021.84H528.38V761.778C528.38 706.037 557.469 654.205 605.235 625.732L619.091 625.459Z" fill="#F5F7FA"/>
  <circle cx="725.207" cy="468.501" r="18.2886" fill="#0F2C44"/>
  <circle cx="571.753" cy="451.075" r="18.2886" fill="#7B2E1C"/>
  <path d="M623.507 478.188C640.744 490.4 665.284 489.869 681.974 476.924" stroke="#7B2E1C" stroke-width="15" stroke-linecap="round"/>
  <path d="M891.909 969.729C891.909 985.565 879.07 998.404 863.234 998.404H585.753C569.917 998.404 557.078 985.565 557.078 969.729V943.598C557.078 927.762 569.917 914.923 585.753 914.923H863.234C879.07 914.923 891.909 927.762 891.909 943.598V969.729Z" fill="#FFFFFF" fill-opacity="0.94"/>
  <path d="M646.481 947.479H809.266" stroke="#D7E8F7" stroke-width="16" stroke-linecap="round"/>
  <path d="M646.481 968.185H756.463" stroke="#E6EFF8" stroke-width="16" stroke-linecap="round"/>
  <path d="M243.702 492.189C243.702 492.189 343.216 544.971 381.995 600.769C420.773 656.567 403.142 747.523 351.802 803.1C300.462 858.677 221.702 880.769 173.785 833.655C125.868 786.54 117.987 690.402 160.939 624.697C203.891 558.991 243.702 492.189 243.702 492.189Z" fill="#FFFFFF"/>
  <path d="M144.753 719.808C151.63 659.977 195.517 612.378 251.379 605.632C313.411 598.138 369.795 642.792 377.289 704.824C384.783 766.855 340.129 823.239 278.098 830.733C227.276 836.871 180.083 808.012 159.284 762.873L144.753 719.808Z" fill="#F4F7FC"/>
  <path d="M188.418 718.447C188.418 675.252 223.432 640.238 266.627 640.238C309.822 640.238 344.836 675.252 344.836 718.447V770.056H188.418V718.447Z" fill="#122B45"/>
  <path d="M224.275 674.323C209.319 652.475 184.064 638.686 156.653 637.138C164.139 663.85 183.32 686.744 209.781 699.632L224.275 674.323Z" fill="#122B45"/>
  <path d="M308.834 674.323C323.791 652.475 349.045 638.686 376.456 637.138C368.97 663.85 349.789 686.744 323.328 699.632L308.834 674.323Z" fill="#122B45"/>
  <circle cx="239.866" cy="721.416" r="10.9612" fill="#FFFFFF"/>
  <circle cx="293.243" cy="721.416" r="10.9612" fill="#FFFFFF"/>
  <path d="M253.584 754.84C260.928 761.742 271.889 761.742 279.232 754.84" stroke="#FFFFFF" stroke-width="10" stroke-linecap="round"/>
</svg>
